<svg width="139" height="49" viewBox="0 0 139 49" fill="none" xmlns="http://www.w3.org/2000/svg">
<path d="M0.401566 35.1C4.74157 29.4533 9.3149 23.6667 14.1216 17.74C18.9282 11.7667 23.5249 5.95667 27.9116 0.309996V28.87H34.7716V35.1H27.9116V47H21.4016V35.1H0.401566ZM21.4016 17.74L12.8616 28.87H21.4016V17.74ZM44.8056 23.69C44.8056 20.0033 45.2956 16.7133 46.2756 13.82C47.3023 10.88 48.6556 8.40667 50.3356 6.4C52.0623 4.39333 54.0923 2.87666 56.4256 1.85C58.759 0.82333 61.279 0.309996 63.9856 0.309996C66.8323 0.309996 69.4223 0.89333 71.7556 2.06C74.089 3.22666 76.0723 4.86 77.7056 6.96C79.3856 9.01333 80.669 11.51 81.5556 14.45C82.489 17.3433 82.9323 20.5633 82.8856 24.11C82.839 27.7967 82.3256 31.0867 81.3456 33.98C80.3656 36.8733 79.0123 39.3467 77.2856 41.4C75.559 43.4067 73.529 44.9467 71.1956 46.02C68.909 47.0467 66.4123 47.56 63.7056 47.56C61.0923 47.56 58.6423 47.0233 56.3556 45.95C54.069 44.8767 52.0623 43.3367 50.3356 41.33C48.609 39.2767 47.2556 36.78 46.2756 33.84C45.2956 30.9 44.8056 27.5167 44.8056 23.69ZM51.3156 23.9C51.269 26.28 51.5723 28.52 52.2256 30.62C52.879 32.72 53.7656 34.5633 54.8856 36.15C56.0056 37.7367 57.3123 38.9967 58.8056 39.93C60.3456 40.8633 61.979 41.33 63.7056 41.33C65.4323 41.33 67.0656 40.8867 68.6056 40C70.1456 39.1133 71.4756 37.8767 72.5956 36.29C73.7623 34.7033 74.6723 32.86 75.3256 30.76C76.0256 28.6133 76.3756 26.35 76.3756 23.97C76.3756 22.2433 76.1656 20.3767 75.7456 18.37C75.3723 16.3167 74.6956 14.4267 73.7156 12.7C72.7356 10.9267 71.4523 9.45667 69.8656 8.29C68.279 7.12333 66.319 6.54 63.9856 6.54C61.559 6.54 59.529 7.14667 57.8956 8.36C56.309 9.57333 55.0256 11.09 54.0456 12.91C53.0656 14.6833 52.3656 16.5733 51.9456 18.58C51.5256 20.5867 51.3156 22.36 51.3156 23.9ZM126.054 39.09C126.054 39.93 126.288 40.63 126.754 41.19C127.268 41.75 127.944 42.03 128.784 42.03C129.671 42.03 130.348 41.75 130.814 41.19C131.281 40.63 131.514 39.93 131.514 39.09C131.514 38.2967 131.281 37.6433 130.814 37.13C130.348 36.57 129.671 36.29 128.784 36.29C127.944 36.29 127.268 36.57 126.754 37.13C126.288 37.6433 126.054 38.2967 126.054 39.09ZM128.784 48.26C127.524 48.26 126.334 48.0267 125.214 47.56C124.094 47.0933 123.114 46.4633 122.274 45.67C121.434 44.83 120.758 43.85 120.244 42.73C119.778 41.61 119.544 40.42 119.544 39.16C119.544 37.9 119.778 36.7333 120.244 35.66C120.758 34.54 121.434 33.56 122.274 32.72C123.114 31.88 124.094 31.2267 125.214 30.76C126.334 30.2933 127.524 30.06 128.784 30.06C130.044 30.06 131.234 30.2933 132.354 30.76C133.474 31.2267 134.454 31.88 135.294 32.72C136.134 33.56 136.788 34.54 137.254 35.66C137.768 36.7333 138.024 37.9 138.024 39.16C138.024 40.42 137.768 41.61 137.254 42.73C136.788 43.85 136.134 44.83 135.294 45.67C134.454 46.4633 133.474 47.0933 132.354 47.56C131.234 48.0267 130.044 48.26 128.784 48.26ZM99.5243 19.42C99.5243 20.2133 99.7576 20.89 100.224 21.45C100.738 22.01 101.438 22.29 102.324 22.29C103.164 22.29 103.818 22.01 104.284 21.45C104.798 20.89 105.054 20.2133 105.054 19.42C105.054 18.58 104.798 17.9033 104.284 17.39C103.818 16.83 103.164 16.55 102.324 16.55C101.438 16.55 100.738 16.83 100.224 17.39C99.7576 17.9033 99.5243 18.58 99.5243 19.42ZM102.324 28.52C101.064 28.52 99.8743 28.2867 98.7543 27.82C97.6343 27.3533 96.6543 26.7 95.8143 25.86C94.9743 25.02 94.2976 24.04 93.7843 22.92C93.3176 21.8 93.0843 20.61 93.0843 19.35C93.0843 18.09 93.3176 16.9233 93.7843 15.85C94.2976 14.73 94.9743 13.7733 95.8143 12.98C96.6543 12.14 97.6343 11.4867 98.7543 11.02C99.8743 10.5533 101.064 10.32 102.324 10.32C103.584 10.32 104.751 10.5533 105.824 11.02C106.944 11.4867 107.924 12.14 108.764 12.98C109.604 13.7733 110.258 14.73 110.724 15.85C111.238 16.9233 111.494 18.09 111.494 19.35C111.494 20.61 111.238 21.8 110.724 22.92C110.258 24.04 109.604 25.02 108.764 25.86C107.924 26.7 106.944 27.3533 105.824 27.82C104.751 28.2867 103.584 28.52 102.324 28.52ZM101.344 47C104.891 41.0267 108.414 35.1233 111.914 29.29C115.461 23.41 118.984 17.4833 122.484 11.51H129.554C126.054 17.4833 122.531 23.41 118.984 29.29C115.438 35.1233 111.914 41.0267 108.414 47H101.344Z" fill="#322B2B"/>
</svg>
